# xmcd
# 
# Track frame offsets:
#     150
#     17747
#     34252
#     52642
#     85542
#     110597
#     123410
#     144222
#     163145
#     176520
#     198145
# 
# Disc length: 2904
# 
# Revision: 2
# Processed by: cddbd v1.5.2PL0 Copyright (c) Steve Scherf et al.
# Submitted via: fre:ac v1.0.31
# 
DISCID=810b560b
DTITLE=Elvin Bishop - The Best Of Elvin Bishop
DYEAR=2002
DGENRE=Rock/Pop
TTITLE0=Let It Flow
TTITLE1=Ground Hog
TTITLE2=Stealin' Watermelons
TTITLE3=Travelin' Shoes
TTITLE4=Juke Joint Jump
TTITLE5=Sure Feels Good
TTITLE6=Fooled Around and Fell in Love
TTITLE7=Struttin' My Stuff
TTITLE8=Sugar Dumplin'
TTITLE9=Rock My Soul
TTITLE10=It's a Feelin'
EXTD=YEAR: 2002
EXTT0=
EXTT1=
EXTT2=
EXTT3=
EXTT4=
EXTT5=
EXTT6=
EXTT7=
EXTT8=
EXTT9=
EXTT10=
PLAYORDER=
